<svg width="29" height="25" viewBox="0 0 29 25" fill="none" xmlns="http://www.w3.org/2000/svg">
<g clip-path="url(#clip0_33_167)">
<path d="M0.0221807 0.0240345C0.0269399 0.038311 0.777321 1.34225 1.6911 2.92378C2.6033 4.50373 4.11199 7.11636 5.04164 8.72803L6.73436 11.6595H7.68939C8.21609 11.6595 8.64601 11.6658 8.64601 11.6722C8.64601 11.6785 8.43184 12.0545 8.17167 12.5066L7.69732 13.3283L7.74968 13.4187C7.77823 13.4679 8.09552 14.0183 8.45564 14.6417C10.3514 17.9238 10.5672 18.2981 10.5783 18.3093C10.5846 18.3156 10.6433 18.2268 10.71 18.111C10.84 17.8825 12.9405 14.2452 13.8336 12.6985C14.1414 12.1655 14.7427 11.1233 15.171 10.3825C15.5977 9.64015 16.0515 8.85494 16.1784 8.63761C16.3053 8.4187 16.6067 7.8984 16.8478 7.47962C17.089 7.06084 17.5427 6.27562 17.8552 5.73469C18.1678 5.19377 18.6072 4.43393 18.8309 4.04529C19.0546 3.65665 19.6638 2.60335 20.1841 1.70233C20.7045 0.802906 21.1376 0.0510006 21.1471 0.0335522L21.1645 0.000240326H18.2804H15.3947L14.9203 0.820354C14.4047 1.71185 13.9685 2.46851 12.5042 5.005L11.5508 6.65475L10.5862 6.65792L9.62166 6.66268L9.16636 5.8727C8.91729 5.43964 8.49213 4.70202 8.22243 4.23565C7.80203 3.50912 7.38004 2.77943 6.0046 0.396814L5.78092 0.00817108L2.89679 0.00341225C0.320429 0.000240326 0.0126621 0.00341225 0.0221807 0.0240345ZM5.18601 2.31623C5.38907 2.66997 5.95067 3.64079 6.43135 4.47359C6.91363 5.3064 7.61007 6.51515 7.97971 7.1576L8.65394 8.3267L10.583 8.32829H12.5121L13.4862 6.64205C14.0208 5.71566 14.6665 4.59732 14.9219 4.15633C15.1758 3.71534 15.6041 2.97454 15.8722 2.50976L16.3592 1.66585H17.3095C17.9441 1.66585 18.2598 1.67061 18.2598 1.68171C18.2598 1.69123 17.6839 2.69535 16.9795 3.91521C16.2751 5.13349 15.5708 6.35652 15.4121 6.63095C14.9743 7.39079 14.0113 9.05798 13.2546 10.3667C12.8818 11.0123 12.3487 11.9323 12.0727 12.413C10.8337 14.5577 10.5957 14.9669 10.5846 14.9701C10.5688 14.9749 9.63753 13.3553 9.63911 13.3251C9.63911 13.3124 9.85645 12.927 10.1214 12.4685C10.3863 12.0101 10.8162 11.2677 11.0748 10.8188L11.5476 10.0018L9.62325 9.99707L7.7005 9.99389L6.54875 7.99834C5.91577 6.90221 4.83858 5.03673 4.15641 3.85494C3.47425 2.67473 2.91265 1.69757 2.9079 1.68647C2.90155 1.66902 3.07447 1.66585 3.85658 1.66902L4.81478 1.67378L5.18601 2.31623Z" fill="#465B67"/>
<path d="M22.9919 0.161888C22.5905 0.85034 11.576 19.9319 11.5633 19.9604C11.549 19.9922 11.7219 20.2983 12.9863 22.4906C13.7795 23.8627 14.4315 24.9795 14.4379 24.9731C14.4601 24.9462 28.8411 0.0286388 28.8411 0.0143623C28.8411 0.00643158 27.6671 8.58307e-05 25.9633 8.58307e-05H23.0855L22.9919 0.161888ZM25.9538 1.67838C25.9538 1.70059 14.4442 21.626 14.4299 21.6276C14.4236 21.6276 14.2047 21.2596 13.9429 20.8091L13.4702 19.9874L18.699 10.9344C21.5736 5.95345 23.9549 1.83226 23.9898 1.77198L24.0516 1.6657H25.0019C25.5254 1.6657 25.9538 1.67204 25.9538 1.67838Z" fill="#465B67"/>
</g>
<defs>
<clipPath id="clip0_33_167">
<rect width="28.8571" height="25" fill="white"/>
</clipPath>
</defs>
</svg>
